{
  "accessors": [
    {
      "bufferView": 2,
      "componentType": 5126,
      "count": 144,
      "max": [
        1,
        1.2834099531173706,
        1
      ],
      "min": [
        -58.621120452880859,
        -1.6636600494384766,
        -0.58744001388549805
      ],
      "type": "VEC3"
    },
    {
      "bufferView": 2,
      "byteOffset": 1728,
      "componentType": 5126,
      "count": 144,
      "max": [
        1,
        0.97775733470916748,
        1
      ],
      "min": [
        -1,
        -1,
        -1
      ],
      "type": "VEC3"
    },
    {
      "bufferView": 0,
      "componentType": 5125,
      "count": 216,
      "max": [
        143
      ],
      "min": [
        0
      ],
      "type": "SCALAR"
    },
    {
      "bufferView": 2,
      "byteOffset": 3456,
      "componentType": 5126,
      "count": 472,
      "max": [
        4.3350200653076172,
        7.4684901237487793,
        0.10016000270843506
      ],
      "min": [
        -10.778530120849609,
        -7.1787099838256836,
        -2.3916199207305908
      ],
      "type": "VEC3"
    },
    {
      "bufferView": 2,
      "byteOffset": 9120,
      "componentType": 5126,
      "count": 472,
      "max": [
        0.99960523843765259,
        0.8173753023147583,
        0.99997323751449585
      ],
      "min": [
        -0.99960523843765259,
        -0.99984085559844971,
        -0.99997800588607788
      ],
      "type": "VEC3"
    },
    {
      "bufferView": 3,
      "componentType": 5126,
      "count": 472,
      "max": [
        0.99999910593032837,
        0.67193156480789185,
        0.9999813437461853,
        1
      ],
      "min": [
        -0.99999916553497314,
        -0.95107012987136841,
        -0.89924097061157227,
        -1
      ],
      "type": "VEC4"
    },
    {
      "bufferView": 1,
      "componentType": 5126,
      "count": 472,
      "max": [
        0.26324999332427979,
        0.25260999798774719
      ],
      "min": [
        0.040649998933076859,
        0.013089999556541443
      ],
      "type": "VEC2"
    },
    {
      "bufferView": 0,
      "byteOffset": 864,
      "componentType": 5125,
      "count": 1884,
      "max": [
        471
      ],
      "min": [
        0
      ],
      "type": "SCALAR"
    },
    {
      "bufferView": 2,
      "byteOffset": 14784,
      "componentType": 5126,
      "count": 482,
      "max": [
        4.4269800186157227,
        2.9959800243377686,
        0.10016000270843506
      ],
      "min": [
        -10.870479583740234,
        -2.6327099800109863,
        -2.0752499103546143
      ],
      "type": "VEC3"
    },
    {
      "bufferView": 2,
      "byteOffset": 20568,
      "componentType": 5126,
      "count": 482,
      "max": [
        0.99575775861740112,
        0.76697593927383423,
        0.99900811910629272
      ],
      "min": [
        -0.99575775861740112,
        -0.93446677923202515,
        -0.99901646375656128
      ],
      "type": "VEC3"
    },
    {
      "bufferView": 3,
      "byteOffset": 7552,
      "componentType": 5126,
      "count": 482,
      "max": [
        0.99903911352157593,
        0.97164040803909302,
        0.99999326467514038,
        1
      ],
      "min": [
        -0.99903911352157593,
        -0.98099958896636963,
        -0.96698582172393799,
        -1
      ],
      "type": "VEC4"
    },
    {
      "bufferView": 0,
      "byteOffset": 8400,
      "componentType": 5125,
      "count": 1368,
      "max": [
        481
      ],
      "min": [
        0
      ],
      "type": "SCALAR"
    },
    {
      "bufferView": 2,
      "byteOffset": 26352,
      "componentType": 5126,
      "count": 511,
      "max": [
        8.8895301818847656,
        1,
        2.6798899173736572
      ],
      "min": [
        -8.8895301818847656,
        -1,
        -10.492380142211914
      ],
      "type": "VEC3"
    },
    {
      "bufferView": 2,
      "byteOffset": 32484,
      "componentType": 5126,
      "count": 511,
      "max": [
        1,
        1,
        1
      ],
      "min": [
        -1,
        -1,
        -1
      ],
      "type": "VEC3"
    },
    {
      "bufferView": 3,
      "byteOffset": 15264,
      "componentType": 5126,
      "count": 511,
      "max": [
        1,
        0.99999946355819702,
        1,
        1
      ],
      "min": [
        -1,
        -1,
        -1,
        1
      ],
      "type": "VEC4"
    },
    {
      "bufferView": 1,
      "byteOffset": 3776,
      "componentType": 5126,
      "count": 511,
      "max": [
        1,
        1
      ],
      "min": [
        0,
        0
      ],
      "type": "VEC2"
    },
    {
      "bufferView": 0,
      "byteOffset": 13872,
      "componentType": 5125,
      "count": 1590,
      "max": [
        510
      ],
      "min": [
        0
      ],
      "type": "SCALAR"
    },
    {
      "bufferView": 2,
      "byteOffset": 38616,
      "componentType": 5126,
      "count": 112,
      "max": [
        4.5463099479675293,
        0.73697000741958618,
        3.3477499485015869
      ],
      "min": [
        -4.478489875793457,
        -1.8139200210571289,
        -2.3380401134490967
      ],
      "type": "VEC3"
    },
    {
      "bufferView": 2,
      "byteOffset": 39960,
      "componentType": 5126,
      "count": 112,
      "max": [
        0.966147780418396,
        0.97745150327682495,
        1
      ],
      "min": [
        -0.966147780418396,
        -1,
        -1
      ],
      "type": "VEC3"
    },
    {
      "bufferView": 3,
      "byteOffset": 23440,
      "componentType": 5126,
      "count": 112,
      "max": [
        1,
        0.98784029483795166,
        1,
        1
      ],
      "min": [
        -0.99920749664306641,
        -0.99954378604888916,
        -0.71432369947433472,
        1
      ],
      "type": "VEC4"
    },
    {
      "bufferView": 1,
      "byteOffset": 7864,
      "componentType": 5126,
      "count": 112,
      "max": [
        0.54110002517700195,
        0.99061000347137451
      ],
      "min": [
        0.35378000140190125,
        0.80329000949859619
      ],
      "type": "VEC2"
    },
    {
      "bufferView": 0,
      "byteOffset": 20232,
      "componentType": 5125,
      "count": 288,
      "max": [
        111
      ],
      "min": [
        0
      ],
      "type": "SCALAR"
    },
    {
      "bufferView": 2,
      "byteOffset": 41304,
      "componentType": 5126,
      "count": 32,
      "max": [
        0.56753998994827271,
        0.24259999394416809,
        2.6991899013519287
      ],
      "min": [
        -0.60803002119064331,
        -0.053020000457763672,
        -0.0096800001338124275
      ],
      "type": "VEC3"
    },
    {
      "bufferView": 2,
      "byteOffset": 41688,
      "componentType": 5126,
      "count": 32,
      "max": [
        1,
        0.99998122453689575,
        0.99998122453689575
      ],
      "min": [
        -1,
        -0.99998122453689575,
        -0.99998122453689575
      ],
      "type": "VEC3"
    },
    {
      "bufferView": 3,
      "byteOffset": 25232,
      "componentType": 5126,
      "count": 32,
      "max": [
        0.99999874830245972,
        1,
        0.0061302576214075089,
        1
      ],
      "min": [
        -0.99999880790710449,
        -1,
        -0.0061308024451136589,
        1
      ],
      "type": "VEC4"
    },
    {
      "bufferView": 1,
      "byteOffset": 8760,
      "componentType": 5126,
      "count": 32,
      "max": [
        0.30684998631477356,
        0.99045002460479736
      ],
      "min": [
        0.13110999763011932,
        0.81471997499465942
      ],
      "type": "VEC2"
    },
    {
      "bufferView": 0,
      "byteOffset": 21384,
      "componentType": 5125,
      "count": 60,
      "max": [
        31
      ],
      "min": [
        0
      ],
      "type": "SCALAR"
    },
    {
      "bufferView": 2,
      "byteOffset": 42072,
      "componentType": 5126,
      "count": 150,
      "max": [
        0.99452000856399536,
        1,
        14.335530281066895
      ],
      "min": [
        -0.99452000856399536,
        -0.98084002733230591,
        13.614620208740234
      ],
      "type": "VEC3"
    },
    {
      "bufferView": 2,
      "byteOffset": 43872,
      "componentType": 5126,
      "count": 150,
      "max": [
        0.99467474222183228,
        0.99960821866989136,
        1
      ],
      "min": [
        -0.99467474222183228,
        -0.99523431062698364,
        -0.99523431062698364
      ],
      "type": "VEC3"
    },
    {
      "bufferView": 0,
      "byteOffset": 21624,
      "componentType": 5125,
      "count": 438,
      "max": [
        149
      ],
      "min": [
        0
      ],
      "type": "SCALAR"
    },
    {
      "bufferView": 2,
      "byteOffset": 45672,
      "componentType": 5126,
      "count": 92,
      "max": [
        0.95105999708175659,
        1,
        1
      ],
      "min": [
        -0.95105999708175659,
        -1,
        -1
      ],
      "type": "VEC3"
    },
    {
      "bufferView": 2,
      "byteOffset": 46776,
      "componentType": 5126,
      "count": 92,
      "max": [
        0.95106101036071777,
        1,
        1
      ],
      "min": [
        -0.95106101036071777,
        -1,
        -1
      ],
      "type": "VEC3"
    },
    {
      "bufferView": 0,
      "byteOffset": 23376,
      "componentType": 5125,
      "count": 540,
      "max": [
        91
      ],
      "min": [
        0
      ],
      "type": "SCALAR"
    },
    {
      "bufferView": 4,
      "componentType": 5126,
      "count": 100,
      "max": [
        11.333330154418945
      ],
      "min": [
        0.041669998317956924
      ],
      "type": "SCALAR"
    },
    {
      "bufferView": 5,
      "componentType": 5126,
      "count": 100,
      "max": [
        0.020239999517798424,
        8.8923101425170898,
        -0.38782998919487
      ],
      "min": [
        0.020239999517798424,
        6.9361701011657715,
        -0.93835997581481934
      ],
      "type": "VEC3"
    },
    {
      "bufferView": 4,
      "byteOffset": 400,
      "componentType": 5126,
      "count": 99,
      "max": [
        11.333330154418945
      ],
      "min": [
        0.041669998317956924
      ],
      "type": "SCALAR"
    },
    {
      "bufferView": 6,
      "componentType": 5126,
      "count": 99,
      "max": [
        0.79622000455856323,
        0.0025200000964105129,
        -0.0020200000144541264,
        0.705299973487854
      ],
      "min": [
        0.70890998840332031,
        0.0023199999704957008,
        -0.0023099998943507671,
        0.60500001907348633
      ],
      "type": "VEC4"
    },
    {
      "bufferView": 4,
      "byteOffset": 796,
      "componentType": 5126,
      "count": 104,
      "max": [
        11.333330154418945
      ],
      "min": [
        0.041669998317956924
      ],
      "type": "SCALAR"
    },
    {
      "bufferView": 6,
      "byteOffset": 1584,
      "componentType": 5126,
      "count": 104,
      "max": [
        0,
        0,
        0.15861999988555908,
        1
      ],
      "min": [
        0,
        0,
        -0.13056999444961548,
        0.98733997344970703
      ],
      "type": "VEC4"
    },
    {
      "bufferView": 4,
      "byteOffset": 1212,
      "componentType": 5126,
      "count": 87,
      "max": [
        11.333330154418945
      ],
      "min": [
        0.041669998317956924
      ],
      "type": "SCALAR"
    },
    {
      "bufferView": 6,
      "byteOffset": 3248,
      "componentType": 5126,
      "count": 87,
      "max": [
        -0.19208000600337982,
        -0,
        0,
        0.98137998580932617
      ],
      "min": [
        -0.71337002515792847,
        -0,
        0,
        0.70077997446060181
      ],
      "type": "VEC4"
    }
  ],
  "animations": [
    {
      "channels": [
        {
          "sampler": 0,
          "target": {
            "node": 14,
            "path": "translation"
          }
        },
        {
          "sampler": 1,
          "target": {
            "node": 14,
            "path": "rotation"
          }
        },
        {
          "sampler": 2,
          "target": {
            "node": 12,
            "path": "rotation"
          }
        },
        {
          "sampler": 3,
          "target": {
            "node": 7,
            "path": "rotation"
          }
        }
      ],
      "name": "Take 01",
      "samplers": [
        {
          "input": 33,
          "interpolation": "LINEAR",
          "output": 34
        },
        {
          "input": 35,
          "interpolation": "LINEAR",
          "output": 36
        },
        {
          "input": 37,
          "interpolation": "LINEAR",
          "output": 38
        },
        {
          "input": 39,
          "interpolation": "LINEAR",
          "output": 40
        }
      ]
    }
  ],
  "asset": {
    "extras": {
      "author": "VapTor (https://sketchfab.com/VapTor)",
      "license": "CC-BY-4.0 (http://creativecommons.org/licenses/by/4.0/)",
      "source": "https://sketchfab.com/models/a338b16a435341aaad0cc5744013685d",
      "title": "Furtif Drone AH9"
    },
    "generator": "Sketchfab-3.22.13",
    "version": "2.0"
  },
  "bufferViews": [
    {
      "buffer": 0,
      "byteLength": 25536,
      "byteOffset": 0,
      "name": "floatBufferViews",
      "target": 34963
    },
    {
      "buffer": 0,
      "byteLength": 9016,
      "byteOffset": 25536,
      "byteStride": 8,
      "name": "floatBufferViews",
      "target": 34962
    },
    {
      "buffer": 0,
      "byteLength": 47880,
      "byteOffset": 34552,
      "byteStride": 12,
      "name": "floatBufferViews",
      "target": 34962
    },
    {
      "buffer": 0,
      "byteLength": 25744,
      "byteOffset": 82432,
      "byteStride": 16,
      "name": "floatBufferViews",
      "target": 34962
    },
    {
      "buffer": 0,
      "byteLength": 1560,
      "byteOffset": 108176,
      "name": "floatBufferViews"
    },
    {
      "buffer": 0,
      "byteLength": 1200,
      "byteOffset": 109736,
      "byteStride": 12,
      "name": "floatBufferViews"
    },
    {
      "buffer": 0,
      "byteLength": 4640,
      "byteOffset": 110936,
      "byteStride": 16,
      "name": "floatBufferViews"
    }
  ],
  "buffers": [
    {
      "byteLength": 115576,
      "uri": "scene.bin"
    }
  ],
  "extensionsRequired": [
    "KHR_materials_pbrSpecularGlossiness"
  ],
  "extensionsUsed": [
    "KHR_materials_pbrSpecularGlossiness"
  ],
  "images": [
    {
      "uri": "Material.001_diffuse.png"
    }
  ],
  "materials": [
    {
      "doubleSided": true,
      "emissiveFactor": [
        0,
        0,
        0
      ],
      "extensions": {
        "KHR_materials_pbrSpecularGlossiness": {
          "diffuseFactor": [
            0.36926983470000002,
            0.33077897550000002,
            0.33077897550000002,
            1
          ],
          "glossinessFactor": 0.40000000000000002,
          "specularFactor": [
            0,
            0,
            0
          ]
        }
      },
      "name": "Root"
    },
    {
      "alphaMode": "BLEND",
      "doubleSided": true,
      "emissiveFactor": [
        0,
        0,
        0
      ],
      "extensions": {
        "KHR_materials_pbrSpecularGlossiness": {
          "diffuseFactor": [
            0.074657618748697335,
            0.074657618748697335,
            0.074657618748697335,
            0.93684210629999998
          ],
          "glossinessFactor": 1,
          "specularFactor": [
            1,
            1,
            1
          ]
        }
      },
      "name": "material"
    },
    {
      "doubleSided": true,
      "emissiveFactor": [
        0,
        0,
        0
      ],
      "extensions": {
        "KHR_materials_pbrSpecularGlossiness": {
          "diffuseFactor": [
            0.57046967739999999,
            0.57046967739999999,
            0.57046967739999999,
            1
          ],
          "glossinessFactor": 1,
          "specularFactor": [
            0,
            0,
            0
          ]
        }
      },
      "name": "Material.002"
    },
    {
      "doubleSided": true,
      "emissiveFactor": [
        0,
        0,
        0
      ],
      "extensions": {
        "KHR_materials_pbrSpecularGlossiness": {
          "diffuseFactor": [
            1,
            1,
            1,
            1
          ],
          "diffuseTexture": {
            "index": 0,
            "texCoord": 0
          },
          "glossinessFactor": 0.83098323169999999,
          "specularFactor": [
            0,
            0,
            0
          ]
        }
      },
      "name": "Material.001"
    }
  ],
  "meshes": [
    {
      "name": "Cube.001_0",
      "primitives": [
        {
          "attributes": {
            "NORMAL": 1,
            "POSITION": 0
          },
          "indices": 2,
          "material": 0,
          "mode": 4
        }
      ]
    },
    {
      "name": "Cylinder_0",
      "primitives": [
        {
          "attributes": {
            "NORMAL": 4,
            "POSITION": 3,
            "TANGENT": 5,
            "TEXCOORD_0": 6
          },
          "indices": 7,
          "material": 3,
          "mode": 4
        }
      ]
    },
    {
      "name": "Cylinder_1",
      "primitives": [
        {
          "attributes": {
            "NORMAL": 9,
            "POSITION": 8,
            "TANGENT": 10
          },
          "indices": 11,
          "material": 2,
          "mode": 4
        }
      ]
    },
    {
      "name": "Circle_0",
      "primitives": [
        {
          "attributes": {
            "NORMAL": 13,
            "POSITION": 12,
            "TANGENT": 14,
            "TEXCOORD_0": 15
          },
          "indices": 16,
          "material": 3,
          "mode": 4
        }
      ]
    },
    {
      "name": "Cube_0",
      "primitives": [
        {
          "attributes": {
            "NORMAL": 18,
            "POSITION": 17,
            "TANGENT": 19,
            "TEXCOORD_0": 20
          },
          "indices": 21,
          "material": 3,
          "mode": 4
        }
      ]
    },
    {
      "name": "Circle.001_0",
      "primitives": [
        {
          "attributes": {
            "NORMAL": 23,
            "POSITION": 22,
            "TANGENT": 24,
            "TEXCOORD_0": 25
          },
          "indices": 26,
          "material": 3,
          "mode": 4
        }
      ]
    },
    {
      "name": "Circle.002_0",
      "primitives": [
        {
          "attributes": {
            "NORMAL": 28,
            "POSITION": 27
          },
          "indices": 29,
          "material": 2,
          "mode": 4
        }
      ]
    },
    {
      "name": "Sphere_0",
      "primitives": [
        {
          "attributes": {
            "NORMAL": 31,
            "POSITION": 30
          },
          "indices": 32,
          "material": 1,
          "mode": 4
        }
      ]
    }
  ],
  "nodes": [
    {
      "children": [
        1
      ],
      "name": "RootNode (gltf orientation matrix)",
      "rotation": [
        -0.70710678118654746,
        -0,
        -0,
        0.70710678118654757
      ]
    },
    {
      "children": [
        2
      ],
      "name": "RootNode (model correction matrix)"
    },
    {
      "children": [
        3,
        5,
        7,
        10,
        12,
        14,
        16,
        18,
        20,
        22
      ],
      "name": "Root"
    },
    {
      "children": [
        4
      ],
      "matrix": [
        -0.29086000000000006,
        0.95517000000000007,
        -0.05519000000000001,
        0,
        -0.77110000000000001,
        -0.19988000000000003,
        0.60452000000000006,
        0,
        0.56639000000000006,
        0.21839000000000003,
        0.7946700000000001,
        0,
        4.0762500000000008,
        1.00545,
        5.9038600000000008,
        1
      ],
      "name": "Lamp"
    },
    {
      "name": "Lamp"
    },
    {
      "children": [
        6
      ],
      "matrix": [
        0.12011000000000001,
        0,
        0,
        0,
        0,
        1.3328899999999999,
        0,
        0,
        0,
        0,
        0.12011000000000001,
        0,
        3.4603900000000003,
        3.4118999999999997,
        -0.46385000000000004,
        1
      ],
      "name": "Cube.001"
    },
    {
      "mesh": 0,
      "name": "Cube.001_0"
    },
    {
      "children": [
        8,
        9
      ],
      "name": "Cylinder",
      "rotation": [
        -0.71337383985519409,
        -0,
        0,
        0.70078372955322266
      ],
      "scale": [
        0.064499996602535248,
        0.064499996602535248,
        0.92329001426696777
      ],
      "translation": [
        0.20780999958515167,
        6.5010099411010742,
        -0.21697999536991119
      ]
    },
    {
      "mesh": 1,
      "name": "Cylinder_0"
    },
    {
      "mesh": 2,
      "name": "Cylinder_1"
    },
    {
      "children": [
        11
      ],
      "matrix": [
        1,
        0,
        0,
        0,
        0,
        -0,
        1,
        0,
        0,
        -1,
        -0,
        0,
        0,
        0,
        0,
        1
      ],
      "name": "Circle"
    },
    {
      "mesh": 3,
      "name": "Circle_0"
    },
    {
      "children": [
        13
      ],
      "name": "Cube",
      "scale": [
        0.093309998512268066,
        1,
        0.38894000649452209
      ],
      "translation": [
        0.013410000130534172,
        0.29135999083518982,
        1.560979962348938
      ]
    },
    {
      "mesh": 4,
      "name": "Cube_0"
    },
    {
      "children": [
        15
      ],
      "name": "Circle.001",
      "rotation": [
        0.70890569686889648,
        0.002319985767826438,
        -0.0023099859245121479,
        0.70529568195343018
      ],
      "translation": [
        0.020239999517798424,
        6.9361701011657715,
        -0.93835997581481934
      ]
    },
    {
      "mesh": 5,
      "name": "Circle.001_0"
    },
    {
      "children": [
        17
      ],
      "matrix": [
        1,
        0,
        0,
        0,
        0,
        1,
        0,
        0,
        0,
        0,
        1,
        0,
        2.37791,
        2.1365399999999997,
        5.9846600000000008,
        1
      ],
      "name": "Hemi"
    },
    {
      "name": "Hemi"
    },
    {
      "children": [
        19
      ],
      "matrix": [
        -0.99780999999999997,
        0,
        -0.066140000000000018,
        0,
        0,
        1,
        0,
        0,
        0.066140000000000018,
        0,
        -0.99780999999999997,
        0,
        2.37791,
        2.1365399999999997,
        -6.0208199999999996,
        1
      ],
      "name": "Hemi.001"
    },
    {
      "name": "Hemi.001"
    },
    {
      "children": [
        21
      ],
      "matrix": [
        0.28477000000000002,
        0,
        0,
        0,
        0,
        0.28477000000000002,
        0,
        0,
        0,
        0,
        0.28477000000000002,
        0,
        -0.020790000000000003,
        7.8700900000000003,
        -4.8617099999999995,
        1
      ],
      "name": "Circle.002"
    },
    {
      "mesh": 6,
      "name": "Circle.002_0"
    },
    {
      "children": [
        23
      ],
      "matrix": [
        0.18608000000000002,
        0,
        0,
        0,
        0,
        0.18608000000000002,
        0,
        0,
        0,
        0,
        0.18608000000000002,
        0,
        -0.016510000000000004,
        7.8805699999999996,
        -0.93542999999999998,
        1
      ],
      "name": "Sphere"
    },
    {
      "mesh": 7,
      "name": "Sphere_0"
    }
  ],
  "samplers": [
    {
      "magFilter": 9729,
      "minFilter": 9987,
      "wrapS": 10497,
      "wrapT": 10497
    }
  ],
  "scene": 0,
  "scenes": [
    {
      "name": "OSG_Scene",
      "nodes": [
        0
      ]
    }
  ],
  "textures": [
    {
      "sampler": 0,
      "source": 0
    }
  ]
}

